<?xml version="1.0" standalone="no"?>
<!DOCTYPE svg PUBLIC "-//W3C//DTD SVG 20010904//EN"
 "http://www.w3.org/TR/2001/REC-SVG-20010904/DTD/svg10.dtd">
<svg version="1.0" xmlns="http://www.w3.org/2000/svg"
 width="16.000000pt" height="16.000000pt" viewBox="0 0 16.000000 16.000000"
 preserveAspectRatio="xMidYMid meet">
<metadata>
Created by potrace 1.11, written by Peter Selinger 2001-2013
</metadata>
<g transform="translate(0.000000,16.000000) scale(0.013333,-0.013333)"
fill="#000000" stroke="none">
<path d="M679 917 c-48 -18 -78 -40 -100 -74 l-19 -28 0 53 0 52 -64 0 -65 0
0 -204 c0 -259 -5 -271 -109 -267 -23 0 -42 0 -43 -1 0 -2 -3 -24 -6 -50 -6
-54 4 -60 94 -59 74 0 133 30 161 79 26 47 30 72 31 197 l1 100 17 -33 c18
-37 61 -68 136 -98 63 -25 87 -48 87 -83 0 -58 -101 -75 -200 -34 -24 10 -26
8 -38 -34 -8 -24 -11 -50 -9 -57 7 -17 86 -37 152 -37 113 -2 205 55 223 136
21 101 -29 170 -160 219 -84 32 -111 88 -56 117 26 14 95 14 132 -1 16 -6 33
-7 37 -3 12 13 29 87 21 94 -30 27 -166 36 -223 16z"/>
</g>
</svg>
